<?xml version="1.0" standalone="no"?><!DOCTYPE svg PUBLIC "-//W3C//DTD SVG 1.1//EN" "http://www.w3.org/Graphics/SVG/1.1/DTD/svg11.dtd"><svg t="1574303612042" class="icon" viewBox="0 0 1024 1024" version="1.1" xmlns="http://www.w3.org/2000/svg" p-id="6404" xmlns:xlink="http://www.w3.org/1999/xlink" width="200" height="200"><defs><style type="text/css"></style></defs><path d="M496 280c-12.8 0-24 11.2-24 24v224c0 12.8 11.2 24 24 24h160c12.8 0 24-11.2 24-24s-11.2-24-24-24h-136V304c0-12.8-11.2-24-24-24z" p-id="6405"></path><path d="M512 152C313.6 152 152 313.6 152 512c0 8 4.8 16 12.8 20.8 8 4.8 16 4.8 24 0l80-48c11.2-6.4 14.4-20.8 8-33.6-6.4-11.2-20.8-14.4-33.6-8l-40 24C224 316.8 355.2 200 512 200c172.8 0 312 139.2 312 312S684.8 824 512 824c-99.2 0-193.6-48-252.8-129.6-8-11.2-22.4-12.8-33.6-4.8-11.2 8-12.8 22.4-4.8 33.6 67.2 92.8 176 148.8 291.2 148.8 198.4 0 360-161.6 360-360S710.4 152 512 152z" p-id="6406"></path></svg>