<?xml version="1.0" standalone="no"?><!DOCTYPE svg PUBLIC "-//W3C//DTD SVG 1.1//EN" "http://www.w3.org/Graphics/SVG/1.1/DTD/svg11.dtd"><svg t="1574838249781" class="icon" viewBox="0 0 1025 1024" version="1.1" xmlns="http://www.w3.org/2000/svg" p-id="1629" xmlns:xlink="http://www.w3.org/1999/xlink" width="200.1953125" height="200"><defs><style type="text/css"></style></defs><path d="M907.56 854.51c0 29.109-23.625 52.734-52.734 52.734h-214.26c-3.691 0-7.172-0.369-10.652-1.107-3.481 0.738-7.066 1.107-10.758 1.107h-449.93c-29.109 0-52.734-23.625-52.734-52.734v-214.102c0-29.162 23.625-52.734 52.734-52.734h42.873c3.692 0 7.277 0.369 10.705 1.055 3.48-0.685 7.013-1.055 10.705-1.055h64.283c3.691 0 7.224 0.369 10.705 1.055 3.481-0.685 7.013-1.055 10.705-1.055h107.104c3.692 0 7.278 0.369 10.758 1.055 3.427-0.685 6.961-1.055 10.653-1.055h64.283c3.692 0 7.277 0.369 10.758 1.055 3.428-0.685 6.961-1.055 10.652-1.055 0 0 29.215 0 54.422 0 0-25.208 0-54.317 0-54.317 0-3.692 0.369-7.224 1.055-10.652-0.685-3.48-1.055-7.066-1.055-10.758v-64.23c0-3.692 0.369-7.172 1.055-10.653-0.685-3.48-1.055-7.067-1.055-10.758v-106.998c0-3.691 0.369-7.224 1.055-10.705-0.685-3.481-1.055-7.013-1.055-10.705v-64.23c0-3.692 0.369-7.277 1.055-10.758-0.685-3.428-1.055-7.013-1.055-10.705v-42.768c0-29.109 23.625-52.734 52.734-52.734h214.26c29.109 0 52.734 23.625 52.734 52.734v449.56c0 3.692-0.369 7.224-1.055 10.705 0.685 3.481 1.055 7.013 1.055 10.705v214.102zM619.156 640.408h-85.747v128.408h-21.41v-128.408h-64.283v85.641h-21.411v-85.641h-107.104v128.408h-21.411v-128.408h-64.283v85.641h-21.41v-85.641h-42.873v214.102h449.93v-214.102zM854.826 169.437h-214.26v42.768h85.693v21.463h-85.693v64.23h128.566v21.411h-128.566v106.998h85.693v21.411h-85.693v64.23h128.566v21.411h-128.566v85.641h214.26v-449.56zM854.826 640.408h-214.26v214.102h214.26v-214.102z" p-id="1630"></path></svg>