<?xml version="1.0" standalone="no"?><!DOCTYPE svg PUBLIC "-//W3C//DTD SVG 1.1//EN" "http://www.w3.org/Graphics/SVG/1.1/DTD/svg11.dtd"><svg t="1574216285822" class="icon" viewBox="0 0 1024 1024" version="1.1" xmlns="http://www.w3.org/2000/svg" p-id="4226" xmlns:xlink="http://www.w3.org/1999/xlink" width="200" height="200"><defs><style type="text/css"></style></defs><path d="M451.413333 699.733333a17.066667 17.066667 0 0 1-17.066666-17.066666V512a17.032533 17.032533 0 0 1 25.3952-14.8992l152.746666 85.333333a17.083733 17.083733 0 0 1-0.017066 29.7984l-152.746667 85.333334a16.930133 16.930133 0 0 1-8.311467 2.167466z m17.066667-158.651733v112.503467L569.173333 597.333333l-100.693333-56.251733z" p-id="4227"></path><path d="M256 955.733333c-66.030933 0-102.4-36.369067-102.4-102.4V341.333333v-0.0512a16.861867 16.861867 0 0 1 5.000533-12.014933l256-256A17.220267 17.220267 0 0 1 426.615467 68.266667H768c66.030933 0 102.4 36.369067 102.4 102.4v688.64c-1.9968 60.398933-36.027733 94.429867-95.863467 96.4096L256 955.733333z m-68.266667-597.333333v494.933333c0 47.223467 21.0432 68.266667 68.266667 68.266667h517.973333c41.5232-1.3824 60.910933-20.7872 62.3104-62.8736L836.266667 170.666667c0-47.223467-21.0432-68.266667-68.266667-68.266667H443.733333v238.933333a17.066667 17.066667 0 0 1-17.066666 17.066667H187.733333z m24.132267-34.133333H409.6V126.532267L211.8656 324.266667z" p-id="4228"></path></svg>