<?xml version="1.0" standalone="no"?><!DOCTYPE svg PUBLIC "-//W3C//DTD SVG 1.1//EN" "http://www.w3.org/Graphics/SVG/1.1/DTD/svg11.dtd"><svg t="1574216442129" class="icon" viewBox="0 0 1024 1024" version="1.1" xmlns="http://www.w3.org/2000/svg" p-id="7068" xmlns:xlink="http://www.w3.org/1999/xlink" width="200" height="200"><defs><style type="text/css"></style></defs><path d="M640.00272 192H384.00272a16 16 0 0 1-16-16V16a16 16 0 0 1 16-16h256a16 16 0 0 1 16 16v160a16 16 0 0 1-16 16z m-240-32h224V32H400.00272v128z" fill="#1D1D1D" p-id="7069"></path><path d="M848.00272 449.28a16 16 0 0 1-16-16V208c0-8.832-7.184-16-16-16H208.00272c-8.816 0-16 7.168-16 16v225.28a16 16 0 1 1-32 0V208c0-26.464 21.536-48 48-48h608c26.464 0 48 21.536 48 48v225.28a16 16 0 0 1-16 16z" fill="#1D1D1D" p-id="7070"></path><path d="M797.44272 923.68a16 16 0 0 1-15.36-20.512l126.4-429.52L512.00272 321.12 115.52272 473.648l126.4 429.52a16 16 0 0 1-30.72 9.04l-130.56-443.68a16 16 0 0 1 9.616-19.472l416-160a16.16 16.16 0 0 1 11.488 0l416 160a16 16 0 0 1 9.6 19.456l-130.56 443.68a16 16 0 0 1-15.344 11.488z" fill="#1D1D1D" p-id="7071"></path><path d="M833.31472 575.088a16 16 0 0 1-15.36-20.496l2.4-8.16a16 16 0 0 1 30.704 8.992l-2.4 8.16a16 16 0 0 1-15.344 11.52zM778.75472 760.448a16 16 0 0 1-15.36-20.512l40.8-138.608a16 16 0 1 1 30.704 9.024l-40.8 138.624a16 16 0 0 1-15.344 11.472zM512.00272 896a16 16 0 0 1-16-16V304a16 16 0 1 1 32 0v576a16 16 0 0 1-16 16z" fill="#1D1D1D" p-id="7072"></path><path d="M946.00272 928c-22.72 0-44.24-8.656-62-24.72C866.24272 919.36 844.72272 928 822.00272 928s-44.24-8.656-62-24.72C742.24272 919.36 720.72272 928 698.00272 928s-44.24-8.656-62-24.72C618.24272 919.36 596.72272 928 574.00272 928S529.76272 919.344 512.00272 903.28C494.24272 919.36 472.72272 928 450.00272 928s-44.24-8.656-62-24.72C370.24272 919.36 348.72272 928 326.00272 928s-44.24-8.656-62-24.72C246.24272 919.36 224.72272 928 202.00272 928s-44.24-8.656-62-24.72C122.24272 919.36 100.72272 928 78.00272 928 49.65072 928 23.20272 914.512 3.52272 890.016a16 16 0 1 1 24.96-20.032C41.95472 886.768 59.52272 896 78.00272 896s36.048-9.232 49.52-26.016c6.08-7.568 18.88-7.568 24.96 0C165.95472 886.768 183.52272 896 202.00272 896s36.048-9.232 49.52-26.016c6.08-7.568 18.88-7.568 24.96 0C289.95472 886.768 307.52272 896 326.00272 896s36.048-9.232 49.52-26.016c6.08-7.568 18.88-7.568 24.96 0C413.95472 886.768 431.52272 896 450.00272 896s36.048-9.232 49.52-26.016c6.08-7.568 18.88-7.568 24.96 0C537.95472 886.768 555.52272 896 574.00272 896s36.048-9.232 49.52-26.016c6.08-7.568 18.88-7.568 24.96 0C661.95472 886.768 679.52272 896 698.00272 896s36.048-9.232 49.52-26.016c6.08-7.568 18.88-7.568 24.96 0C785.95472 886.768 803.52272 896 822.00272 896s36.048-9.232 49.52-26.016c6.08-7.568 18.88-7.568 24.96 0C909.95472 886.768 927.52272 896 946.00272 896s36.048-9.232 49.52-26.016a16 16 0 0 1 24.96 20.032C1000.80272 914.512 974.35472 928 946.00272 928zM946.00272 1024c-22.72 0-44.24-8.656-62-24.72C866.24272 1015.36 844.72272 1024 822.00272 1024s-44.24-8.656-62-24.72C742.24272 1015.36 720.72272 1024 698.00272 1024s-44.24-8.656-62-24.72C618.24272 1015.36 596.72272 1024 574.00272 1024S529.76272 1015.344 512.00272 999.28C494.24272 1015.36 472.72272 1024 450.00272 1024s-44.24-8.656-62-24.72C370.24272 1015.36 348.72272 1024 326.00272 1024s-44.24-8.656-62-24.72C246.24272 1015.36 224.72272 1024 202.00272 1024s-44.24-8.656-62-24.72C122.24272 1015.36 100.72272 1024 78.00272 1024 49.65072 1024 23.20272 1010.512 3.52272 986.016a16 16 0 1 1 24.96-20.032C41.95472 982.768 59.52272 992 78.00272 992s36.048-9.232 49.52-26.016c6.08-7.568 18.88-7.568 24.96 0C165.95472 982.768 183.52272 992 202.00272 992s36.048-9.232 49.52-26.016c6.08-7.568 18.88-7.568 24.96 0C289.95472 982.768 307.52272 992 326.00272 992s36.048-9.232 49.52-26.016c6.08-7.568 18.88-7.568 24.96 0C413.95472 982.768 431.52272 992 450.00272 992s36.048-9.232 49.52-26.016c6.08-7.568 18.88-7.568 24.96 0C537.95472 982.768 555.52272 992 574.00272 992s36.048-9.232 49.52-26.016c6.08-7.568 18.88-7.568 24.96 0C661.95472 982.768 679.52272 992 698.00272 992s36.048-9.232 49.52-26.016c6.08-7.568 18.88-7.568 24.96 0C785.95472 982.768 803.52272 992 822.00272 992s36.048-9.232 49.52-26.016c6.08-7.568 18.88-7.568 24.96 0C909.95472 982.768 927.52272 992 946.00272 992s36.048-9.232 49.52-26.016a16 16 0 0 1 24.96 20.032C1000.80272 1010.512 974.35472 1024 946.00272 1024zM256.00272 256c-4.16 0-8.32-1.76-11.36-4.64-2.88-3.04-4.64-7.04-4.64-11.36 0-4.32 1.76-8.32 4.64-11.36 6.08-5.92 16.8-5.92 22.72 0 2.88 3.04 4.64 7.2 4.64 11.36s-1.76 8.32-4.64 11.36c-3.04 2.88-7.04 4.64-11.36 4.64zM320.00272 256a16.16 16.16 0 0 1-16-16c0-4.16 1.76-8.32 4.64-11.36 5.92-5.92 16.8-5.92 22.72 0 2.88 3.04 4.64 7.2 4.64 11.36s-1.76 8.32-4.64 11.36c-3.04 2.88-7.04 4.64-11.36 4.64zM384.00272 256c-4.16 0-8.32-1.76-11.36-4.64-2.88-3.04-4.64-7.2-4.64-11.36s1.76-8.32 4.64-11.36c6.08-5.92 16.64-5.92 22.72 0 2.88 3.04 4.64 7.2 4.64 11.36s-1.76 8.32-4.64 11.36c-3.04 2.88-7.2 4.64-11.36 4.64zM448.00272 256c-4.16 0-8.32-1.76-11.36-4.64-2.88-3.04-4.64-7.2-4.64-11.36 0-4.32 1.76-8.32 4.64-11.36 6.08-5.92 16.64-5.92 22.72 0 2.88 3.04 4.64 7.2 4.64 11.36s-1.76 8.32-4.64 11.36c-3.04 2.88-7.2 4.64-11.36 4.64zM512.00272 256c-4.16 0-8.32-1.76-11.36-4.64-2.88-3.04-4.64-7.2-4.64-11.36 0-4.32 1.76-8.32 4.64-11.36 6.08-5.92 16.8-5.92 22.72 0 2.88 3.04 4.64 7.2 4.64 11.36s-1.76 8.32-4.64 11.36c-3.04 2.88-7.04 4.64-11.36 4.64zM576.00272 256a16.16 16.16 0 0 1-16-16c0-4.16 1.76-8.32 4.64-11.36 5.92-5.92 16.64-5.92 22.72 0 2.88 3.04 4.64 7.2 4.64 11.36s-1.76 8.32-4.64 11.36c-3.04 2.88-7.2 4.64-11.36 4.64zM640.00272 256c-4.16 0-8.32-1.76-11.36-4.64-2.88-3.04-4.64-7.2-4.64-11.36s1.76-8.32 4.64-11.36c6.08-5.92 16.64-5.92 22.72 0 2.88 3.04 4.64 7.04 4.64 11.36 0 4.16-1.76 8.32-4.64 11.36-3.04 2.88-7.2 4.64-11.36 4.64zM704.00272 256c-4.16 0-8.32-1.76-11.36-4.64-2.88-3.04-4.64-7.2-4.64-11.36 0-4.32 1.76-8.32 4.64-11.36 6.08-5.92 16.64-5.92 22.72 0 2.88 3.04 4.64 7.2 4.64 11.36s-1.76 8.32-4.64 11.36c-3.04 2.88-7.2 4.64-11.36 4.64zM768.00272 256c-4.16 0-8.32-1.76-11.36-4.64-2.88-3.04-4.64-7.2-4.64-11.36 0-4.32 1.76-8.32 4.64-11.36 6.08-5.92 16.8-5.92 22.72 0 2.88 3.04 4.64 7.2 4.64 11.36s-1.76 8.32-4.64 11.36c-3.04 2.88-7.04 4.64-11.36 4.64zM640.00272 96H384.00272a16 16 0 1 1 0-32h256a16 16 0 1 1 0 32zM416.00272 496c-26.464 0-48-21.536-48-48s21.536-48 48-48 48 21.536 48 48-21.536 48-48 48z m0-64a16.016 16.016 0 0 0 0 32 16.016 16.016 0 0 0 0-32zM608.00272 496c-26.464 0-48-21.536-48-48s21.536-48 48-48 48 21.536 48 48-21.536 48-48 48z m0-64a16.016 16.016 0 0 0 0 32 16.016 16.016 0 0 0 0-32z" fill="#1D1D1D" p-id="7073"></path></svg>